<svg width="200" height="200" viewBox="0 0 200 200" fill="none" xmlns="http://www.w3.org/2000/svg">
<path d="M99.97 0V199.93" stroke="white" stroke-width="2" stroke-miterlimit="10"/>
<path d="M74.1 3.40002L125.84 196.53" stroke="white" stroke-width="2" stroke-miterlimit="10"/>
<path d="M49.98 13.39L149.95 186.54" stroke="white" stroke-width="2" stroke-miterlimit="10"/>
<path d="M29.28 29.28L170.66 170.65" stroke="white" stroke-width="2" stroke-miterlimit="10"/>
<path d="M13.39 49.98L186.54 149.95" stroke="white" stroke-width="2" stroke-miterlimit="10"/>
<path d="M3.41 74.09L196.53 125.84" stroke="white" stroke-width="2" stroke-miterlimit="10"/>
<path d="M0 99.96H199.94" stroke="white" stroke-width="2" stroke-miterlimit="10"/>
<path d="M3.41 125.84L196.53 74.09" stroke="white" stroke-width="2" stroke-miterlimit="10"/>
<path d="M13.39 149.95L186.54 49.98" stroke="white" stroke-width="2" stroke-miterlimit="10"/>
<path d="M29.28 170.65L170.66 29.28" stroke="white" stroke-width="2" stroke-miterlimit="10"/>
<path d="M49.98 186.54L149.95 13.39" stroke="white" stroke-width="2" stroke-miterlimit="10"/>
<path d="M74.1 196.53L125.84 3.40002" stroke="white" stroke-width="2" stroke-miterlimit="10"/>
<path d="M99.97 199.93V0" stroke="white" stroke-width="2" stroke-miterlimit="10"/>
<path d="M125.84 196.53L74.1 3.40002" stroke="white" stroke-width="2" stroke-miterlimit="10"/>
<path d="M149.95 186.54L49.98 13.39" stroke="white" stroke-width="2" stroke-miterlimit="10"/>
<path d="M170.66 170.65L29.28 29.28" stroke="white" stroke-width="2" stroke-miterlimit="10"/>
<path d="M186.54 149.95L13.39 49.98" stroke="white" stroke-width="2" stroke-miterlimit="10"/>
<path d="M196.53 125.84L3.41 74.09" stroke="white" stroke-width="2" stroke-miterlimit="10"/>
</svg>
